<svg width="20" height="18" viewBox="0 0 20 18" fill="none" xmlns="http://www.w3.org/2000/svg">
<path d="M19.2857 9H15.8571M5.57143 1C5.87453 1 6.16522 1.12041 6.37955 1.33474C6.59388 1.54906 6.71429 1.83975 6.71429 2.14286V4.42857C6.71429 4.73168 6.59388 5.02237 6.37955 5.23669C6.16522 5.45102 5.87453 5.57143 5.57143 5.57143C5.26832 5.57143 4.97763 5.45102 4.76331 5.23669C4.54898 5.02237 4.42857 4.73168 4.42857 4.42857V2.14286C4.42857 1.83975 4.54898 1.54906 4.76331 1.33474C4.97763 1.12041 5.26832 1 5.57143 1V1ZM19.2857 3.28571H6.71429H19.2857ZM4.42857 3.28571H1H4.42857ZM5.57143 12.4286C5.87453 12.4286 6.16522 12.549 6.37955 12.7633C6.59388 12.9776 6.71429 13.2683 6.71429 13.5714V15.8571C6.71429 16.1602 6.59388 16.4509 6.37955 16.6653C6.16522 16.8796 5.87453 17 5.57143 17C5.26832 17 4.97763 16.8796 4.76331 16.6653C4.54898 16.4509 4.42857 16.1602 4.42857 15.8571V13.5714C4.42857 13.2683 4.54898 12.9776 4.76331 12.7633C4.97763 12.549 5.26832 12.4286 5.57143 12.4286ZM19.2857 14.7143H6.71429H19.2857ZM4.42857 14.7143H1H4.42857ZM14.7143 6.71429C15.0174 6.71429 15.3081 6.83469 15.5224 7.04902C15.7367 7.26335 15.8571 7.55404 15.8571 7.85714V10.1429C15.8571 10.446 15.7367 10.7367 15.5224 10.951C15.3081 11.1653 15.0174 11.2857 14.7143 11.2857C14.4112 11.2857 14.1205 11.1653 13.9062 10.951C13.6918 10.7367 13.5714 10.446 13.5714 10.1429V7.85714C13.5714 7.55404 13.6918 7.26335 13.9062 7.04902C14.1205 6.83469 14.4112 6.71429 14.7143 6.71429V6.71429ZM13.5714 9H1H13.5714Z" stroke="black" stroke-linecap="round" stroke-linejoin="round"/>
</svg>
