<svg width="74" height="30" viewBox="0 0 74 30" fill="none" xmlns="http://www.w3.org/2000/svg">
<path d="M2.24 29.28C1.68 29.28 1.24 29.1333 0.92 28.84C0.626667 28.52 0.48 28.0667 0.48 27.48V2.6C0.48 2.01333 0.626667 1.57333 0.92 1.28C1.24 0.959999 1.69333 0.799998 2.28 0.799998H16.8C17.2533 0.799998 17.6 0.919998 17.84 1.16C18.08 1.4 18.2 1.73333 18.2 2.16C18.2 2.61333 18.08 2.96 17.84 3.2C17.6 3.44 17.2533 3.56 16.8 3.56H3.76V13.4H15.96C16.4133 13.4 16.76 13.52 17 13.76C17.2667 14 17.4 14.3333 17.4 14.76C17.4 15.2133 17.2667 15.56 17 15.8C16.76 16.04 16.4133 16.16 15.96 16.16H3.76V27.48C3.76 28.68 3.25333 29.28 2.24 29.28ZM24.2963 29.2C23.7629 29.2 23.3629 29.0533 23.0963 28.76C22.8296 28.44 22.6963 28 22.6963 27.44V11.08C22.6963 10.52 22.8296 10.0933 23.0963 9.8C23.3629 9.50667 23.7629 9.36 24.2963 9.36C24.8029 9.36 25.2029 9.50667 25.4963 9.8C25.7896 10.0933 25.9363 10.52 25.9363 11.08V27.44C25.9363 28 25.7896 28.44 25.4963 28.76C25.2296 29.0533 24.8296 29.2 24.2963 29.2ZM24.2963 4.88C23.6296 4.88 23.1096 4.70666 22.7363 4.36C22.3629 3.98666 22.1763 3.49333 22.1763 2.88C22.1763 2.24 22.3629 1.76 22.7363 1.44C23.1096 1.09333 23.6296 0.919999 24.2963 0.919999C24.9896 0.919999 25.5096 1.09333 25.8563 1.44C26.2296 1.76 26.4163 2.24 26.4163 2.88C26.4163 3.49333 26.2296 3.98666 25.8563 4.36C25.5096 4.70666 24.9896 4.88 24.2963 4.88ZM32.0731 29.24C31.7265 29.24 31.4198 29.1333 31.1531 28.92C30.8865 28.7067 30.7398 28.4267 30.7131 28.08C30.7131 27.7067 30.8865 27.32 31.2331 26.92L38.2331 18.12V19.8L31.6731 11.6C31.3265 11.1733 31.1531 10.7867 31.1531 10.44C31.1798 10.0933 31.3265 9.81333 31.5931 9.6C31.8598 9.38667 32.1665 9.28 32.5131 9.28C32.9131 9.28 33.2465 9.36 33.5131 9.52C33.8065 9.65333 34.0731 9.88 34.3131 10.2L40.0331 17.44H38.9131L44.6731 10.2C44.9131 9.88 45.1665 9.65333 45.4331 9.52C45.6998 9.36 46.0331 9.28 46.4331 9.28C46.8065 9.28 47.1131 9.38667 47.3531 9.6C47.6198 9.81333 47.7531 10.1067 47.7531 10.48C47.7798 10.8267 47.6198 11.2133 47.2731 11.64L40.7531 19.72V18.24L47.7531 26.92C48.0731 27.32 48.2198 27.7067 48.1931 28.08C48.1931 28.4267 48.0598 28.7067 47.7931 28.92C47.5265 29.1333 47.2065 29.24 46.8331 29.24C46.4598 29.24 46.1265 29.16 45.8331 29C45.5665 28.8667 45.2998 28.64 45.0331 28.32L38.8731 20.56H40.0331L33.8731 28.32C33.6331 28.6133 33.3665 28.84 33.0731 29C32.8065 29.16 32.4731 29.24 32.0731 29.24ZM54.6088 29.2C54.0754 29.2 53.6754 29.0533 53.4088 28.76C53.1421 28.44 53.0088 28 53.0088 27.44V11.08C53.0088 10.52 53.1421 10.0933 53.4088 9.8C53.6754 9.50667 54.0754 9.36 54.6088 9.36C55.1154 9.36 55.5154 9.50667 55.8088 9.8C56.1021 10.0933 56.2488 10.52 56.2488 11.08V27.44C56.2488 28 56.1021 28.44 55.8088 28.76C55.5421 29.0533 55.1421 29.2 54.6088 29.2ZM54.6088 4.88C53.9421 4.88 53.4221 4.70666 53.0488 4.36C52.6754 3.98666 52.4888 3.49333 52.4888 2.88C52.4888 2.24 52.6754 1.76 53.0488 1.44C53.4221 1.09333 53.9421 0.919999 54.6088 0.919999C55.3021 0.919999 55.8221 1.09333 56.1688 1.44C56.5421 1.76 56.7288 2.24 56.7288 2.88C56.7288 3.49333 56.5421 3.98666 56.1688 4.36C55.8221 4.70666 55.3021 4.88 54.6088 4.88ZM70.1056 29.36C68.5856 29.36 67.3056 29.0933 66.2656 28.56C65.2523 28 64.4923 27.2 63.9856 26.16C63.479 25.0933 63.2256 23.8 63.2256 22.28V12.08H60.5456C60.0923 12.08 59.7456 11.9733 59.5056 11.76C59.2656 11.52 59.1456 11.2 59.1456 10.8C59.1456 10.4 59.2656 10.0933 59.5056 9.88C59.7456 9.66667 60.0923 9.56 60.5456 9.56H63.2256V4.96C63.2256 4.42667 63.3723 4.02666 63.6656 3.76C63.959 3.46667 64.359 3.32 64.8656 3.32C65.3723 3.32 65.759 3.46667 66.0256 3.76C66.319 4.02666 66.4656 4.42667 66.4656 4.96V9.56H71.5056C71.959 9.56 72.3056 9.66667 72.5456 9.88C72.7856 10.0933 72.9056 10.4 72.9056 10.8C72.9056 11.2 72.7856 11.52 72.5456 11.76C72.3056 11.9733 71.959 12.08 71.5056 12.08H66.4656V21.96C66.4656 23.48 66.7856 24.64 67.4256 25.44C68.0656 26.2133 69.1056 26.6 70.5456 26.6C71.0523 26.6 71.479 26.5467 71.8256 26.44C72.199 26.3333 72.5056 26.28 72.7456 26.28C72.9856 26.2533 73.1856 26.3333 73.3456 26.52C73.5056 26.7067 73.5856 27.0267 73.5856 27.48C73.5856 27.8 73.519 28.0933 73.3856 28.36C73.279 28.6267 73.079 28.8133 72.7856 28.92C72.4656 29.0267 72.039 29.12 71.5056 29.2C70.999 29.3067 70.5323 29.36 70.1056 29.36Z" fill="black"/>
</svg>
