<svg width="31" height="33" viewBox="0 0 31 33" fill="none" xmlns="http://www.w3.org/2000/svg">
<path d="M29.6704 7.72926C29.6517 7.69545 29.6254 7.66164 29.5953 7.63535C29.4075 7.44753 29.1033 7.44753 28.9155 7.63535L22.4441 14.1076L19.8938 11.557L26.369 5.08101C26.399 5.05095 26.4216 5.0209 26.4441 4.9871C26.5793 4.75796 26.5042 4.46496 26.2751 4.32973C22.5868 2.15103 17.7567 2.65062 14.5829 5.82101C12.0665 8.33779 11.2327 11.9064 12.0853 15.1143L1.08043 26.1205C0.96775 26.2332 0.975261 26.4173 1.09169 26.5337L7.46548 32.9083C7.58191 33.0247 7.76971 33.0323 7.87863 32.9196L18.8797 21.9171C22.091 22.7736 25.6591 21.9434 28.1793 19.4229C31.3493 16.2487 31.8489 11.418 29.6704 7.72926ZM26.2676 17.5071C24.0854 19.6896 20.8102 20.1103 18.2074 18.7693L17.8769 19.0998L17.8731 19.0961L7.58191 29.3923L4.60723 26.4173L13.2496 17.7738C13.2496 17.7738 13.2496 17.7776 13.2533 17.7776L15.2365 15.7942C13.8956 13.191 14.3163 9.91547 16.4985 7.73301C17.2022 7.02849 18.0498 6.48422 18.9832 6.13738C19.9167 5.79055 20.914 5.64932 21.907 5.72335L16.9154 10.7118C16.6899 10.9376 16.5633 11.2436 16.5633 11.5626C16.5633 11.8817 16.6899 12.1877 16.9154 12.4135L21.5915 17.0902C21.8172 17.3156 22.1232 17.4423 22.4422 17.4423C22.7612 17.4423 23.0672 17.3156 23.2929 17.0902L28.2807 12.1017C28.4197 14.0475 27.7399 16.0384 26.2676 17.5071Z" fill="black"/>
</svg>
