<svg width="57" height="57" viewBox="0 0 57 57" fill="none" xmlns="http://www.w3.org/2000/svg">
<circle cx="28.5" cy="28.5" r="28.5" fill="#D9D9D9"/>
<path d="M41.7208 15.2773C41.853 15.4098 41.9434 15.5782 41.9808 15.7616C42.0181 15.945 42.0008 16.1353 41.9309 16.309L30.8156 44.0996C30.7177 44.3444 30.5541 44.5574 30.3429 44.7151C30.1318 44.8729 29.8811 44.9693 29.6187 44.9938C29.3562 45.0183 29.0921 44.9699 28.8554 44.8539C28.6187 44.738 28.4186 44.5589 28.277 44.3365L22.2065 34.7941L12.6652 28.7228C12.4423 28.5814 12.2628 28.3811 12.1466 28.1442C12.0303 27.9072 11.9817 27.6427 12.0062 27.3799C12.0307 27.117 12.1273 26.8661 12.2854 26.6547C12.4435 26.4433 12.6569 26.2797 12.9021 26.1819L40.6893 15.0691C40.8629 14.9992 41.0532 14.9819 41.2366 15.0192C41.42 15.0566 41.5883 15.147 41.7208 15.2793V15.2773ZM24.1129 34.2362L29.3868 42.5236L38.4277 19.9196L24.1129 34.2362ZM37.0772 18.569L14.4761 27.6109L22.7643 32.8837L37.0791 18.569H37.0772Z" fill="black"/>
</svg>
