<svg width="25" height="25" viewBox="0 0 25 25" fill="none" xmlns="http://www.w3.org/2000/svg">
<path d="M4.64219 9.6536C5.06023 8.62299 5.75836 7.70751 6.6485 7.02265C7.53864 6.33778 8.58092 5.91422 9.64386 5.80538C10.7068 5.69654 11.7428 5.9073 12.6211 6.41108C13.4995 6.91485 14.1809 7.68908 14.5793 8.63609L9.59124 9.19928L9.59402 13.2635L14.5811 12.7013C14.1783 13.7565 13.482 14.6987 12.5833 15.4049C11.6846 16.111 10.6254 16.5481 9.54422 16.659C8.46302 16.7699 7.41021 16.5494 6.52351 16.0264C5.63681 15.5034 4.42372 14.1938 4.0407 13.2193L2.5407 14.2193L1.0407 14.7193C1.42782 16.8501 2.32106 18.1594 3.87524 19.5444C6.33464 21.7133 9.30916 23.2361 12.5785 24C15.8478 24.764 19.3282 24.7495 22.7619 23.9577C20.8625 23.0799 19.092 21.9745 17.4845 20.6626C17.001 20.2988 16.6076 19.8297 16.3285 19.2842C16.0494 18.7387 15.8906 18.1283 15.8617 17.4906C15.8329 16.8529 15.9347 16.2013 16.1608 15.576C16.387 14.9507 16.7327 14.3648 17.1767 13.8545C17.6394 13.3387 18.1894 12.9108 18.7945 12.5959C19.3996 12.281 20.0476 12.0854 20.7005 12.0206C21.3534 11.9558 21.998 12.0231 22.5965 12.2186C23.1949 12.4141 23.7352 12.7338 24.1856 13.159L24.5 13.4972C24.1207 9.14909 22.2095 5.25004 19.1049 2.49079C17.7259 1.25986 15.9993 0.470411 14.1088 0.206515C12.2184 -0.0573819 10.2349 0.214161 8.36964 0.992225C6.5044 1.77029 4.82725 3.02573 3.51683 4.62484C2.20641 6.22394 1.31181 8.10682 0.928287 10.0729L4.64219 9.6536Z" fill="black"/>
</svg>
